<svg id="Group_374" data-name="Group 374" xmlns="http://www.w3.org/2000/svg" xmlns:xlink="http://www.w3.org/1999/xlink" width="71.171" height="67.903" viewBox="0 0 71.171 67.903">
  <defs>
    <clipPath id="clip-path">
      <rect id="Rectangle_397" data-name="Rectangle 397" width="71.171" height="67.903" fill="#fff"/>
    </clipPath>
  </defs>
  <g id="Group_373" data-name="Group 373" clip-path="url(#clip-path)">
    <path id="Path_249" data-name="Path 249" d="M3.118,88.881V114.6H1.069a1.069,1.069,0,1,0,0,2.137H70.1a1.069,1.069,0,0,0,0-2.137H68.053V61.756a1.068,1.068,0,0,0-1.069-1.068H58.915a1.068,1.068,0,0,0-1.069,1.068V114.6H54.371v-39.9A1.069,1.069,0,0,0,53.3,73.625H45.233a1.069,1.069,0,0,0-1.068,1.068v39.9H40.689V86.424a1.069,1.069,0,0,0-1.069-1.068H31.551a1.069,1.069,0,0,0-1.069,1.068V114.6H27.007V79.5a1.069,1.069,0,0,0-1.069-1.068H17.869A1.069,1.069,0,0,0,16.8,79.5v35.1H13.324V88.881a1.068,1.068,0,0,0-1.068-1.068H4.186a1.069,1.069,0,0,0-1.069,1.068M59.985,62.825h5.932v4.162H59.985Zm0,6.3h5.932V114.6H59.984ZM46.3,75.761h5.932v4.162H46.3Zm0,6.3h5.932v32.534H46.3ZM32.621,87.492h5.932v4.162H32.621Zm0,6.3h5.932v20.8H32.62ZM18.939,80.564h5.932v4.162H18.939Zm0,6.3H24.87v27.732H18.938ZM5.256,89.948h5.932V94.11H5.256Zm0,6.3h5.932V114.6H5.255Z" transform="translate(0 -48.83)" fill="#fff"/>
    <path id="Path_250" data-name="Path 250" d="M22.66,26.5a4.716,4.716,0,1,0,4.022,2.252l5.793-4.18a4.714,4.714,0,0,0,7.08-.135L45.517,27.3a4.716,4.716,0,1,0,8.633-.9l6.7-6.076a4.715,4.715,0,0,0,7-6l6.023-6.078a4.7,4.7,0,1,0-1.251-1.774h0l-6.2,6.253a4.716,4.716,0,0,0-6.944,5.949l-6.767,6.14a4.714,4.714,0,0,0-6.12.635l-6.066-2.913a4.715,4.715,0,1,0-9.109.16l-6.264,4.52a4.693,4.693,0,0,0-2.5-.716M77,2.137a2.578,2.578,0,1,1-2.165,3.978l-.019-.03A2.578,2.578,0,0,1,77,2.137M63.707,13.994a2.573,2.573,0,0,1,1.943.884h0l.024.028a2.578,2.578,0,1,1-3.964,3.3l-.021-.027a2.577,2.577,0,0,1,2.018-4.182M47.818,27.35l.011-.018a2.577,2.577,0,0,1,4.1-.388l.013.014.01.011a2.578,2.578,0,1,1-4.133.382M35.956,18.81a2.578,2.578,0,1,1-2.284,3.776l0,0,0-.006,0,0a2.579,2.579,0,0,1,2.29-3.763M22.661,33.79A2.578,2.578,0,1,1,24.4,29.308l.034.031a2.577,2.577,0,0,1-1.772,4.45" transform="translate(-14.439 0.001)" fill="#fff"/>
  </g>
</svg>
