<svg xmlns="http://www.w3.org/2000/svg" xmlns:xlink="http://www.w3.org/1999/xlink" width="312" height="52" viewBox="0 0 312 52">
  <defs>
    <clipPath id="clip-path">
      <rect id="Rectangle_3" data-name="Rectangle 3" width="312" height="52" fill="#fff"/>
    </clipPath>
  </defs>
  <g id="Group_1" data-name="Group 1" clip-path="url(#clip-path)">
    <path id="Path_1" data-name="Path 1" d="M45.083,12.348,23.595,0h-1.4L.7,12.348A1.4,1.4,0,0,0,0,13.559v24.7a1.4,1.4,0,0,0,.7,1.211L22.19,51.812a1.407,1.407,0,0,0,1.4,0L45.083,39.465a1.4,1.4,0,0,0,.7-1.211v-24.7a1.4,1.4,0,0,0-.7-1.212M39.12,16.581,24.045,42.57a1.333,1.333,0,0,1-2.3,0L6.665,16.58A1.308,1.308,0,0,1,8.456,14.8l14.438,8.3,2.469,1.419h0l4.314,2.478a.374.374,0,0,0,.511-.136l3.564-6.143c.214-.368-.2-.781-.785-.568l-6.62,3.8L23.878,22.53h0L37.328,14.8a1.308,1.308,0,0,1,1.791,1.783" transform="translate(0 0)" fill="#fff"/>
    <path id="Path_2" data-name="Path 2" d="M28.552,29.582l-5.495-3.158h0l-2.575-1.481L12.77,20.514a.417.417,0,0,0-.571.568l3.564,6.144a.375.375,0,0,0,.512.136L19.5,25.51l2.576,1.481-4.512,2.592a.372.372,0,0,0-.137.51L22.711,39.2a.4.4,0,0,0,.692,0l5.285-9.112a.372.372,0,0,0-.137-.51" transform="translate(-0.164 -0.371)" fill="#fff"/>
    <path id="Path_3" data-name="Path 3" d="M69.608,19.534H67.244a.324.324,0,0,0-.343.273L65,27.378c-.012.045-.032.069-.06.069s-.054-.024-.077-.069l-1.936-7.571a.323.323,0,0,0-.342-.273H60.168c-.183,0-.274.075-.274.222a.388.388,0,0,0,.017.119l3.409,11.34a.32.32,0,0,0,.343.255h2.4a.331.331,0,0,0,.36-.255l3.444-11.34a.272.272,0,0,0-.018-.255.291.291,0,0,0-.24-.085" transform="translate(-0.811 -0.355)" fill="#fff"/>
    <path id="Path_4" data-name="Path 4" d="M80.622,19.534h-7.9a.292.292,0,0,0-.308.307V31.164a.292.292,0,0,0,.308.306h7.9a.293.293,0,0,0,.308-.306V29.356a.292.292,0,0,0-.308-.306H75.379a.106.106,0,0,1-.119-.121V26.747a.105.105,0,0,1,.119-.119h3.307a.3.3,0,0,0,.223-.085.3.3,0,0,0,.086-.221V24.531a.292.292,0,0,0-.309-.306H75.379a.106.106,0,0,1-.119-.12V22.075a.1.1,0,0,1,.119-.119h5.243a.294.294,0,0,0,.308-.307V19.841a.294.294,0,0,0-.308-.307" transform="translate(-0.981 -0.355)" fill="#fff"/>
    <path id="Path_5" data-name="Path 5" d="M89.936,23.76h.086l2.226-.153c.2-.023.292-.085.292-.188A3.762,3.762,0,0,0,90.356,19.9a5.462,5.462,0,0,0-2.408-.5,5.223,5.223,0,0,0-2.406.529,3.876,3.876,0,0,0-1.611,1.491,4.264,4.264,0,0,0-.574,2.226v3.683a4.348,4.348,0,0,0,.574,2.251,3.871,3.871,0,0,0,1.611,1.5,5.223,5.223,0,0,0,2.406.528,5.462,5.462,0,0,0,2.408-.5,3.808,3.808,0,0,0,1.61-1.425,3.941,3.941,0,0,0,.574-2.131v-.085c0-.034-.1-.063-.292-.085L90,27.257a.353.353,0,0,0-.231.033.172.172,0,0,0-.077.153,1.748,1.748,0,1,1-3.5,0v-3.87a1.732,1.732,0,0,1,.479-1.27,1.909,1.909,0,0,1,2.536-.008,1.727,1.727,0,0,1,.479,1.278v.1c0,.056.08.084.24.084" transform="translate(-1.129 -0.352)" fill="#fff"/>
    <path id="Path_6" data-name="Path 6" d="M103.8,19.534h-8.7a.294.294,0,0,0-.309.307v1.824a.294.294,0,0,0,.309.307h2.758a.106.106,0,0,1,.12.119v9.072a.294.294,0,0,0,.085.221.3.3,0,0,0,.223.085h2.227a.3.3,0,0,0,.222-.085.291.291,0,0,0,.086-.221V22.092a.106.106,0,0,1,.12-.119H103.8a.294.294,0,0,0,.309-.307V19.841a.294.294,0,0,0-.309-.307" transform="translate(-1.284 -0.355)" fill="#fff"/>
    <path id="Path_7" data-name="Path 7" d="M113.512,19.949a5.676,5.676,0,0,0-4.891,0,4.02,4.02,0,0,0-1.636,1.552,4.463,4.463,0,0,0-.583,2.294v3.411a4.574,4.574,0,0,0,.583,2.336,4,4,0,0,0,1.636,1.56,5.676,5.676,0,0,0,4.891,0,4,4,0,0,0,1.645-1.56,4.583,4.583,0,0,0,.582-2.336V23.795a4.472,4.472,0,0,0-.582-2.294,4.015,4.015,0,0,0-1.645-1.552M112.9,27.29a1.965,1.965,0,0,1-.505,1.416,1.753,1.753,0,0,1-1.328.528,1.733,1.733,0,0,1-1.311-.528,1.965,1.965,0,0,1-.505-1.416V23.76a1.973,1.973,0,0,1,.505-1.407,1.722,1.722,0,0,1,1.311-.537,1.741,1.741,0,0,1,1.328.537,1.973,1.973,0,0,1,.505,1.407Z" transform="translate(-1.442 -0.352)" fill="#fff"/>
    <path id="Path_8" data-name="Path 8" d="M125.4,26.577a.115.115,0,0,1,.068-.171,3.145,3.145,0,0,0,1.551-1.211,3.454,3.454,0,0,0,.556-1.961A3.9,3.9,0,0,0,127.1,21.3a3.257,3.257,0,0,0-1.329-1.3,4.128,4.128,0,0,0-1.987-.46H118.8a.3.3,0,0,0-.223.085.3.3,0,0,0-.085.222V31.164a.3.3,0,0,0,.085.221.3.3,0,0,0,.223.085h2.227a.293.293,0,0,0,.308-.306V26.832a.106.106,0,0,1,.12-.119h1.062a.132.132,0,0,1,.137.085l1.987,4.433a.364.364,0,0,0,.36.239h2.347c.182,0,.274-.074.274-.222l-.034-.136ZM124.35,24.2a1.5,1.5,0,0,1-1.028.35h-1.867a.106.106,0,0,1-.12-.119V22.075a.106.106,0,0,1,.12-.12h1.867a1.472,1.472,0,0,1,1.028.358,1.228,1.228,0,0,1,.394.955,1.181,1.181,0,0,1-.394.929" transform="translate(-1.605 -0.355)" fill="#fff"/>
    <path id="Path_9" data-name="Path 9" d="M143.052,25.21q-.669-.306-1.867-.716-1.045-.342-1.551-.555a2.243,2.243,0,0,1-.745-.46.858.858,0,0,1-.241-.622.891.891,0,0,1,.378-.768,1.752,1.752,0,0,1,1.045-.273,2.1,2.1,0,0,1,1.422.46,1.373,1.373,0,0,1,.531,1.057v.153a.136.136,0,0,0,.086.128.5.5,0,0,0,.222.043h2.176a.294.294,0,0,0,.309-.307v-.136a3.43,3.43,0,0,0-.6-2,3.928,3.928,0,0,0-1.653-1.347,5.689,5.689,0,0,0-2.372-.478,5.587,5.587,0,0,0-2.236.427,3.566,3.566,0,0,0-1.542,1.218,3.142,3.142,0,0,0-.556,1.851,2.881,2.881,0,0,0,.582,1.833,4.163,4.163,0,0,0,1.4,1.16,13.482,13.482,0,0,0,1.919.776l.378.12a7.56,7.56,0,0,1,1.5.6.811.811,0,0,1,.419.732.981.981,0,0,1-.359.75,1.622,1.622,0,0,1-1.114.325,2.284,2.284,0,0,1-1.43-.427,1.218,1.218,0,0,1-.557-.972v-.2a.172.172,0,0,0-.086-.145.382.382,0,0,0-.222-.059h-2.176a.3.3,0,0,0-.222.085.294.294,0,0,0-.086.221V27.9a3.421,3.421,0,0,0,.565,1.953,3.611,3.611,0,0,0,1.6,1.3,6,6,0,0,0,2.408.452,5.921,5.921,0,0,0,2.364-.443,3.646,3.646,0,0,0,1.593-1.254,3.2,3.2,0,0,0,.566-1.884,2.7,2.7,0,0,0-.591-1.816,3.74,3.74,0,0,0-1.26-1" transform="translate(-1.84 -0.352)" fill="#fff"/>
    <path id="Path_10" data-name="Path 10" d="M155.34,20.011a4.352,4.352,0,0,0-2.065-.477h-4.848a.3.3,0,0,0-.223.085.3.3,0,0,0-.086.222V31.164a.3.3,0,0,0,.086.221.3.3,0,0,0,.223.085h2.227a.294.294,0,0,0,.309-.306V27.19a.105.105,0,0,1,.119-.119h2.056a4.742,4.742,0,0,0,2.142-.461,3.359,3.359,0,0,0,1.43-1.312,3.77,3.77,0,0,0,.505-1.962,3.957,3.957,0,0,0-.487-1.986,3.39,3.39,0,0,0-1.388-1.339m-1.388,4.417a1.641,1.641,0,0,1-1.139.392h-1.73a.105.105,0,0,1-.119-.119V22.075a.105.105,0,0,1,.119-.119h1.73a1.619,1.619,0,0,1,1.139.4,1.357,1.357,0,0,1,.437,1.049,1.313,1.313,0,0,1-.437,1.023" transform="translate(-2.007 -0.355)" fill="#fff"/>
    <path id="Path_11" data-name="Path 11" d="M165.524,19.79a.331.331,0,0,0-.36-.256h-3.032a.344.344,0,0,0-.359.256l-3.6,11.339a.26.26,0,0,0,.017.246.278.278,0,0,0,.24.094h2.416a.319.319,0,0,0,.342-.255l.395-1.4a.134.134,0,0,1,.138-.1h3.871c.08,0,.126.034.137.1l.394,1.4a.321.321,0,0,0,.343.255h2.416c.182,0,.274-.074.274-.222a.3.3,0,0,0-.018-.119Zm-.505,7.7a.1.1,0,0,1-.1.042h-2.534a.091.091,0,0,1-.1-.1v-.034l1.3-4.535q.035-.085.077-.085c.03,0,.048.028.06.085l1.3,4.535a.112.112,0,0,1-.008.094" transform="translate(-2.143 -0.355)" fill="#fff"/>
    <path id="Path_12" data-name="Path 12" d="M177.865,23.76h.086l2.226-.153c.2-.023.292-.085.292-.188a3.762,3.762,0,0,0-2.184-3.522,5.462,5.462,0,0,0-2.408-.5,5.223,5.223,0,0,0-2.406.529,3.876,3.876,0,0,0-1.611,1.491,4.264,4.264,0,0,0-.574,2.226v3.683a4.348,4.348,0,0,0,.574,2.251,3.871,3.871,0,0,0,1.611,1.5,5.222,5.222,0,0,0,2.406.528,5.462,5.462,0,0,0,2.408-.5,3.808,3.808,0,0,0,1.61-1.425,3.941,3.941,0,0,0,.574-2.131v-.085c0-.034-.1-.063-.292-.085l-2.244-.119a.353.353,0,0,0-.231.033.172.172,0,0,0-.077.153,1.748,1.748,0,1,1-3.495,0v-3.87a1.732,1.732,0,0,1,.479-1.27,1.909,1.909,0,0,1,2.536-.008,1.727,1.727,0,0,1,.479,1.278v.1c0,.056.08.084.24.084" transform="translate(-2.321 -0.352)" fill="#fff"/>
    <path id="Path_13" data-name="Path 13" d="M191.129,19.534h-7.9a.292.292,0,0,0-.308.307V31.164a.292.292,0,0,0,.308.306h7.9a.293.293,0,0,0,.308-.306V29.356a.292.292,0,0,0-.308-.306h-5.243a.106.106,0,0,1-.119-.121V26.747a.105.105,0,0,1,.119-.119h3.307a.3.3,0,0,0,.223-.085.3.3,0,0,0,.086-.221V24.531a.292.292,0,0,0-.309-.306h-3.307a.106.106,0,0,1-.119-.12V22.075a.1.1,0,0,1,.119-.119h5.243a.294.294,0,0,0,.308-.307V19.841a.294.294,0,0,0-.308-.307" transform="translate(-2.478 -0.355)" fill="#fff"/>
    <path id="Path_14" data-name="Path 14" d="M207.411,25.4c-.045-.023-.069-.051-.069-.085s.024-.062.069-.084a2.458,2.458,0,0,0,1.336-2.37,2.937,2.937,0,0,0-1.07-2.541,5.315,5.315,0,0,0-3.161-.784H200.2a.3.3,0,0,0-.223.085.3.3,0,0,0-.085.222V31.164a.3.3,0,0,0,.085.221.3.3,0,0,0,.223.085h4.455a5.256,5.256,0,0,0,3.1-.836,2.9,2.9,0,0,0,1.182-2.54,2.8,2.8,0,0,0-1.524-2.7m-4.678-3.324a.106.106,0,0,1,.12-.12h1.662a1.668,1.668,0,0,1,1.079.307,1.059,1.059,0,0,1,.377.87,1.015,1.015,0,0,1-.377.843,1.7,1.7,0,0,1-1.079.3h-1.662a.106.106,0,0,1-.12-.119Zm2.981,6.641a1.6,1.6,0,0,1-1.061.316h-1.8a.106.106,0,0,1-.12-.12v-2.2a.106.106,0,0,1,.12-.12h1.8a1.6,1.6,0,0,1,1.07.315,1.283,1.283,0,0,1-.009,1.808" transform="translate(-2.708 -0.355)" fill="#fff"/>
    <path id="Path_15" data-name="Path 15" d="M214.53,19.534H212.3a.3.3,0,0,0-.223.085.3.3,0,0,0-.085.222V31.164a.294.294,0,0,0,.085.221.3.3,0,0,0,.223.085h2.227a.3.3,0,0,0,.222-.085.291.291,0,0,0,.086-.221V19.841a.3.3,0,0,0-.086-.222.3.3,0,0,0-.222-.085" transform="translate(-2.872 -0.355)" fill="#fff"/>
    <path id="Path_16" data-name="Path 16" d="M224.905,19.949a5.679,5.679,0,0,0-4.892,0,4.019,4.019,0,0,0-1.636,1.552,4.462,4.462,0,0,0-.582,2.294v3.411a4.573,4.573,0,0,0,.582,2.336,4,4,0,0,0,1.636,1.56,5.679,5.679,0,0,0,4.892,0,4.007,4.007,0,0,0,1.645-1.56,4.593,4.593,0,0,0,.581-2.336V23.795a4.481,4.481,0,0,0-.581-2.294,4.027,4.027,0,0,0-1.645-1.552m-.617,7.341a1.965,1.965,0,0,1-.506,1.416,1.912,1.912,0,0,1-2.639,0,1.965,1.965,0,0,1-.505-1.416V23.76a1.973,1.973,0,0,1,.505-1.407,1.889,1.889,0,0,1,2.639,0,1.974,1.974,0,0,1,.506,1.407Z" transform="translate(-2.951 -0.352)" fill="#fff"/>
    <path id="Path_17" data-name="Path 17" d="M237.112,25.21q-.669-.306-1.867-.716-1.045-.342-1.551-.555a2.254,2.254,0,0,1-.745-.46.858.858,0,0,1-.241-.622.891.891,0,0,1,.378-.768,1.752,1.752,0,0,1,1.045-.273,2.1,2.1,0,0,1,1.422.46,1.373,1.373,0,0,1,.531,1.057v.153a.136.136,0,0,0,.086.128.5.5,0,0,0,.222.043h2.176a.294.294,0,0,0,.309-.307v-.136a3.431,3.431,0,0,0-.6-2,3.928,3.928,0,0,0-1.653-1.347,5.689,5.689,0,0,0-2.372-.478,5.587,5.587,0,0,0-2.236.427,3.566,3.566,0,0,0-1.542,1.218,3.142,3.142,0,0,0-.556,1.851,2.881,2.881,0,0,0,.582,1.833,4.163,4.163,0,0,0,1.4,1.16,13.482,13.482,0,0,0,1.919.776l.378.12a7.561,7.561,0,0,1,1.5.6.811.811,0,0,1,.419.732.981.981,0,0,1-.359.75,1.621,1.621,0,0,1-1.114.325,2.284,2.284,0,0,1-1.43-.427,1.218,1.218,0,0,1-.557-.972v-.2a.172.172,0,0,0-.086-.145.382.382,0,0,0-.222-.059h-2.176a.3.3,0,0,0-.222.085.294.294,0,0,0-.086.221V27.9a3.429,3.429,0,0,0,.565,1.953,3.611,3.611,0,0,0,1.6,1.3,6,6,0,0,0,2.408.452,5.921,5.921,0,0,0,2.364-.443,3.646,3.646,0,0,0,1.593-1.254,3.2,3.2,0,0,0,.566-1.884,2.7,2.7,0,0,0-.591-1.816,3.74,3.74,0,0,0-1.26-1" transform="translate(-3.114 -0.352)" fill="#fff"/>
    <path id="Path_18" data-name="Path 18" d="M248.271,23.76h.086l2.226-.153c.2-.023.292-.085.292-.188a3.762,3.762,0,0,0-2.184-3.522,5.462,5.462,0,0,0-2.408-.5,5.223,5.223,0,0,0-2.406.529,3.876,3.876,0,0,0-1.611,1.491,4.264,4.264,0,0,0-.574,2.226v3.683a4.348,4.348,0,0,0,.574,2.251,3.871,3.871,0,0,0,1.611,1.5,5.223,5.223,0,0,0,2.406.528,5.462,5.462,0,0,0,2.408-.5,3.808,3.808,0,0,0,1.61-1.425,3.941,3.941,0,0,0,.574-2.131v-.085c0-.034-.1-.063-.292-.085l-2.244-.119a.353.353,0,0,0-.231.033.172.172,0,0,0-.077.153,1.748,1.748,0,1,1-3.495,0v-3.87a1.732,1.732,0,0,1,.479-1.27,1.909,1.909,0,0,1,2.536-.008,1.727,1.727,0,0,1,.479,1.278v.1c0,.056.08.084.24.084" transform="translate(-3.274 -0.352)" fill="#fff"/>
    <path id="Path_19" data-name="Path 19" d="M256.385,19.534h-2.227a.3.3,0,0,0-.223.085.3.3,0,0,0-.085.222V31.164a.294.294,0,0,0,.085.221.3.3,0,0,0,.223.085h2.227a.3.3,0,0,0,.222-.085.291.291,0,0,0,.086-.221V19.841a.3.3,0,0,0-.086-.222.3.3,0,0,0-.222-.085" transform="translate(-3.439 -0.355)" fill="#fff"/>
    <path id="Path_20" data-name="Path 20" d="M268.047,19.534h-7.9a.292.292,0,0,0-.308.307V31.164a.292.292,0,0,0,.308.306h7.9a.294.294,0,0,0,.222-.085.291.291,0,0,0,.086-.221V29.356a.292.292,0,0,0-.308-.306H262.8a.106.106,0,0,1-.119-.121V26.747a.105.105,0,0,1,.119-.119h3.307a.3.3,0,0,0,.223-.085.3.3,0,0,0,.086-.221V24.531a.292.292,0,0,0-.309-.306H262.8a.106.106,0,0,1-.119-.12V22.075a.1.1,0,0,1,.119-.119h5.243a.293.293,0,0,0,.308-.307V19.841a.293.293,0,0,0-.308-.307" transform="translate(-3.52 -0.355)" fill="#fff"/>
    <path id="Path_21" data-name="Path 21" d="M280.434,19.534h-2.193a.294.294,0,0,0-.308.307l.017,6.189c0,.057-.017.091-.051.1s-.063,0-.086-.051l-3.769-6.344a.39.39,0,0,0-.36-.2h-2.107a.3.3,0,0,0-.223.085.3.3,0,0,0-.086.222V31.164a.3.3,0,0,0,.086.221.3.3,0,0,0,.223.085h2.193a.3.3,0,0,0,.223-.085.3.3,0,0,0,.086-.221l-.035-6.293c0-.056.02-.09.06-.1s.071.012.095.069l3.768,6.428a.417.417,0,0,0,.36.2h2.107a.293.293,0,0,0,.309-.306V19.841a.294.294,0,0,0-.309-.307" transform="translate(-3.675 -0.355)" fill="#fff"/>
    <path id="Path_22" data-name="Path 22" d="M290.37,23.76h.085l2.226-.153c.2-.023.292-.085.292-.188a3.762,3.762,0,0,0-2.184-3.522,5.462,5.462,0,0,0-2.408-.5,5.223,5.223,0,0,0-2.406.529,3.876,3.876,0,0,0-1.611,1.491,4.264,4.264,0,0,0-.574,2.226v3.683a4.348,4.348,0,0,0,.574,2.251,3.871,3.871,0,0,0,1.611,1.5,5.222,5.222,0,0,0,2.406.528,5.462,5.462,0,0,0,2.408-.5,3.809,3.809,0,0,0,1.61-1.425,3.941,3.941,0,0,0,.574-2.131v-.085c0-.034-.1-.063-.292-.085l-2.244-.119a.353.353,0,0,0-.231.033.172.172,0,0,0-.077.153,1.748,1.748,0,1,1-3.495,0v-3.87a1.732,1.732,0,0,1,.479-1.27,1.909,1.909,0,0,1,2.536-.008,1.727,1.727,0,0,1,.479,1.278v.1c0,.056.08.084.241.084" transform="translate(-3.845 -0.352)" fill="#fff"/>
    <path id="Path_23" data-name="Path 23" d="M304.154,19.534h-7.9a.292.292,0,0,0-.308.307V31.164a.292.292,0,0,0,.308.306h7.9a.293.293,0,0,0,.308-.306V29.356a.292.292,0,0,0-.308-.306h-5.243a.106.106,0,0,1-.119-.121V26.747a.105.105,0,0,1,.119-.119h3.307a.3.3,0,0,0,.223-.085.3.3,0,0,0,.086-.221V24.531a.292.292,0,0,0-.309-.306h-3.307a.106.106,0,0,1-.119-.12V22.075a.1.1,0,0,1,.119-.119h5.243a.294.294,0,0,0,.308-.307V19.841a.294.294,0,0,0-.308-.307" transform="translate(-4.01 -0.355)" fill="#fff"/>
    <path id="Path_24" data-name="Path 24" d="M315.569,26.207a3.752,3.752,0,0,0-1.26-1q-.669-.306-1.867-.716-1.045-.34-1.551-.554a2.255,2.255,0,0,1-.745-.461.856.856,0,0,1-.24-.622.892.892,0,0,1,.377-.768,1.758,1.758,0,0,1,1.046-.273,2.1,2.1,0,0,1,1.421.46,1.371,1.371,0,0,1,.531,1.057v.153a.136.136,0,0,0,.086.128.485.485,0,0,0,.222.043h2.177a.294.294,0,0,0,.308-.307v-.136a3.427,3.427,0,0,0-.6-1.994,3.924,3.924,0,0,0-1.653-1.348,5.689,5.689,0,0,0-2.372-.477,5.579,5.579,0,0,0-2.235.426,3.565,3.565,0,0,0-1.543,1.219,3.137,3.137,0,0,0-.556,1.85,2.876,2.876,0,0,0,.583,1.833,4.157,4.157,0,0,0,1.4,1.16,13.61,13.61,0,0,0,1.92.777l.377.119a7.638,7.638,0,0,1,1.5.6.813.813,0,0,1,.419.732.986.986,0,0,1-.36.751,1.625,1.625,0,0,1-1.114.324,2.289,2.289,0,0,1-1.43-.426,1.219,1.219,0,0,1-.556-.972V27.58a.176.176,0,0,0-.086-.145.388.388,0,0,0-.223-.059h-2.176a.294.294,0,0,0-.308.307V27.9a3.427,3.427,0,0,0,.565,1.953,3.6,3.6,0,0,0,1.6,1.3,6.584,6.584,0,0,0,4.77.009,3.648,3.648,0,0,0,1.594-1.254,3.211,3.211,0,0,0,.565-1.884,2.7,2.7,0,0,0-.591-1.816" transform="translate(-4.16 -0.352)" fill="#fff"/>
  </g>
</svg>
