<svg xmlns="http://www.w3.org/2000/svg" xmlns:xlink="http://www.w3.org/1999/xlink" width="69.893" height="79" viewBox="0 0 69.893 79">
  <defs>
    <clipPath id="clip-path">
      <rect id="Rectangle_396" data-name="Rectangle 396" width="69.893" height="79" fill="#fff"/>
    </clipPath>
  </defs>
  <g id="Group_371" data-name="Group 371" clip-path="url(#clip-path)">
    <path id="Path_226" data-name="Path 226" d="M65.381,313.889H94.274a1.341,1.341,0,0,0,0-2.682H65.381a1.341,1.341,0,1,0,0,2.682" transform="translate(-48.335 -234.889)" fill="#fff" fill-rule="evenodd"/>
    <path id="Path_227" data-name="Path 227" d="M204.421,313.889h17.4a1.341,1.341,0,1,0,0-2.682h-17.4a1.341,1.341,0,0,0,0,2.682" transform="translate(-153.278 -234.889)" fill="#fff" fill-rule="evenodd"/>
    <path id="Path_228" data-name="Path 228" d="M1.341,313.889H11.417a1.341,1.341,0,0,0,0-2.682H1.341a1.341,1.341,0,0,0,0,2.682" transform="translate(0 -234.889)" fill="#fff" fill-rule="evenodd"/>
    <path id="Path_229" data-name="Path 229" d="M133.451,285.834h34.808a1.341,1.341,0,0,0,0-2.682H133.451a1.341,1.341,0,1,0,0,2.682" transform="translate(-99.712 -213.714)" fill="#fff" fill-rule="evenodd"/>
    <path id="Path_230" data-name="Path 230" d="M1.341,285.834H28.454a1.341,1.341,0,1,0,0-2.682H1.341a1.341,1.341,0,1,0,0,2.682Z" transform="translate(0 -213.714)" fill="#fff" fill-rule="evenodd"/>
    <path id="Path_231" data-name="Path 231" d="M191.031,257.779h20.687a1.341,1.341,0,0,0,0-2.682H191.031a1.341,1.341,0,0,0,0,2.682" transform="translate(-143.172 -192.539)" fill="#fff" fill-rule="evenodd"/>
    <path id="Path_232" data-name="Path 232" d="M65.381,257.779H90.647a1.341,1.341,0,0,0,0-2.682H65.381a1.341,1.341,0,0,0,0,2.682" transform="translate(-48.335 -192.539)" fill="#fff" fill-rule="evenodd"/>
    <path id="Path_233" data-name="Path 233" d="M1.346,257.779h9.627a1.341,1.341,0,0,0,0-2.682H1.346a1.341,1.341,0,0,0,0,2.682Z" transform="translate(-0.004 -192.539)" fill="#fff" fill-rule="evenodd"/>
    <path id="Path_234" data-name="Path 234" d="M124.986,229.724h21.3a1.341,1.341,0,0,0,0-2.682h-21.3a1.341,1.341,0,1,0,0,2.682" transform="translate(-93.323 -171.364)" fill="#fff" fill-rule="evenodd"/>
    <path id="Path_235" data-name="Path 235" d="M233.386,229.724h10.3a1.341,1.341,0,0,0,0-2.682h-10.3a1.341,1.341,0,0,0,0,2.682" transform="translate(-175.14 -171.364)" fill="#fff" fill-rule="evenodd"/>
    <path id="Path_236" data-name="Path 236" d="M1.346,229.724h24.6a1.341,1.341,0,0,0,0-2.682H1.346a1.341,1.341,0,0,0,0,2.682" transform="translate(-0.004 -171.364)" fill="#fff" fill-rule="evenodd"/>
    <path id="Path_237" data-name="Path 237" d="M1.346,201.669H13.1a1.341,1.341,0,0,0,0-2.682H1.346a1.341,1.341,0,0,0,0,2.682Z" transform="translate(-0.004 -150.189)" fill="#fff" fill-rule="evenodd"/>
    <path id="Path_238" data-name="Path 238" d="M180.636,201.669h23.239a1.341,1.341,0,0,0,0-2.682H180.636a1.341,1.341,0,0,0,0,2.682" transform="translate(-135.326 -150.189)" fill="#fff" fill-rule="evenodd"/>
    <path id="Path_239" data-name="Path 239" d="M69.046,201.669H90.073a1.341,1.341,0,0,0,0-2.682H69.046a1.341,1.341,0,0,0,0,2.682" transform="translate(-51.102 -150.189)" fill="#fff" fill-rule="evenodd"/>
    <path id="Path_240" data-name="Path 240" d="M1.355,173.614H26.83a1.341,1.341,0,0,0,0-2.682H1.355a1.341,1.341,0,0,0,0,2.682" transform="translate(-0.011 -129.014)" fill="#fff" fill-rule="evenodd"/>
    <path id="Path_241" data-name="Path 241" d="M205.345,173.614h17.18a1.341,1.341,0,0,0,0-2.682h-17.18a1.341,1.341,0,0,0,0,2.682" transform="translate(-153.976 -129.014)" fill="#fff" fill-rule="evenodd"/>
    <path id="Path_242" data-name="Path 242" d="M128.935,173.614h12.679a1.341,1.341,0,0,0,0-2.682H128.935a1.341,1.341,0,0,0,0,2.682" transform="translate(-96.304 -129.014)" fill="#fff" fill-rule="evenodd"/>
    <path id="Path_243" data-name="Path 243" d="M1.355,145.559h8.827a1.341,1.341,0,0,0,0-2.682H1.355a1.341,1.341,0,0,0,0,2.682" transform="translate(-0.011 -107.839)" fill="#fff" fill-rule="evenodd"/>
    <path id="Path_244" data-name="Path 244" d="M238.065,145.559h9.157a1.341,1.341,0,0,0,0-2.682h-9.157a1.341,1.341,0,0,0,0,2.682" transform="translate(-178.672 -107.839)" fill="#fff" fill-rule="evenodd"/>
    <path id="Path_245" data-name="Path 245" d="M62.5,145.559H99.123a1.341,1.341,0,0,0,0-2.682H62.5a1.341,1.341,0,0,0,0,2.682Z" transform="translate(-46.157 -107.839)" fill="#fff" fill-rule="evenodd"/>
    <path id="Path_246" data-name="Path 246" d="M191.927,27.174l20.643-12.341a1.342,1.342,0,0,0,0-2.3L191.927.19a1.341,1.341,0,1,0-1.376,2.3l18.717,11.19L190.55,24.872a1.341,1.341,0,0,0,1.376,2.3Z" transform="translate(-143.328 0)" fill="#fff" fill-rule="evenodd"/>
    <path id="Path_247" data-name="Path 247" d="M22.695,24.871,3.978,13.682,22.695,2.492A1.341,1.341,0,1,0,21.318.19L.676,12.531a1.342,1.342,0,0,0,0,2.3L21.318,27.174a1.342,1.342,0,0,0,1.376-2.3Z" transform="translate(-0.017 0)" fill="#fff" fill-rule="evenodd"/>
    <path id="Path_248" data-name="Path 248" d="M126.493,7.414,114.152,28.788a1.341,1.341,0,0,0,2.323,1.341L128.816,8.755a1.341,1.341,0,1,0-2.323-1.341Z" transform="translate(-86.023 -5.089)" fill="#fff" fill-rule="evenodd"/>
  </g>
</svg>
