<svg xmlns="http://www.w3.org/2000/svg" xmlns:xlink="http://www.w3.org/1999/xlink" width="72.417" height="79" viewBox="0 0 72.417 79">
  <defs>
    <clipPath id="clip-path">
      <rect id="Rectangle_395" data-name="Rectangle 395" width="72.417" height="79" fill="#fff"/>
    </clipPath>
  </defs>
  <g id="Group_369" data-name="Group 369" clip-path="url(#clip-path)">
    <path id="Path_219" data-name="Path 219" d="M59.494,37.049v-9.01a1.219,1.219,0,1,0-2.438,0v8.079a21.944,21.944,0,0,0-24.135,34.1H15.605a1.212,1.212,0,0,0,.244-.731V67.052a1.219,1.219,0,1,0-2.438,0v2.438a1.213,1.213,0,0,0,.244.731H4.112a1.674,1.674,0,0,1-1.673-1.674V4.112A1.674,1.674,0,0,1,4.112,2.438H44.62V13.654a1.22,1.22,0,0,0,1.219,1.219H57.055v6.675a1.219,1.219,0,0,0,2.438,0V13.653a1.206,1.206,0,0,0-.092-.464v0a1.228,1.228,0,0,0-.264-.394L46.7.357a1.226,1.226,0,0,0-.393-.264h0a1.218,1.218,0,0,0-.145-.051L46.135.037l-.008,0h-.007l-.008,0-.016,0h-.008l-.007,0-.008,0-.012,0-.007,0-.008,0H46.04l-.007,0-.016,0H46.01L46,.01l-.016,0h-.007l-.023,0H4.112A4.114,4.114,0,0,0,0,4.112V68.549A4.114,4.114,0,0,0,4.112,72.66H35.049A21.943,21.943,0,1,0,59.494,37.049M47.058,4.164l8.273,8.273H47.058Zm3.413,72.4A19.506,19.506,0,1,1,69.978,57.056,19.515,19.515,0,0,1,50.472,76.562" fill="#fff" fill-rule="evenodd"/>
    <path id="Path_220" data-name="Path 220" d="M203.246,245H188.032a1.219,1.219,0,0,0-1.045,1.846l7.608,12.679a1.218,1.218,0,0,0,2.09,0l7.608-12.679A1.219,1.219,0,0,0,203.246,245m-7.607,11.529-5.454-9.09h10.908Z" transform="translate(-145.167 -190.387)" fill="#fff" fill-rule="evenodd"/>
    <path id="Path_221" data-name="Path 221" d="M61.375,262.505a1.219,1.219,0,0,0-1.219,1.219v2.438a1.219,1.219,0,0,0,2.438,0v-2.438a1.219,1.219,0,0,0-1.219-1.219" transform="translate(-46.746 -203.986)" fill="#fff" fill-rule="evenodd"/>
    <path id="Path_222" data-name="Path 222" d="M62.594,230.912a1.219,1.219,0,0,0-2.438,0v2.438a1.219,1.219,0,0,0,2.438,0Z" transform="translate(-46.746 -178.489)" fill="#fff" fill-rule="evenodd"/>
    <path id="Path_223" data-name="Path 223" d="M188.026,226.662h15.215a1.219,1.219,0,1,0,0-2.438H188.026a1.219,1.219,0,1,0,0,2.438" transform="translate(-145.163 -174.239)" fill="#fff" fill-rule="evenodd"/>
    <path id="Path_224" data-name="Path 224" d="M62.594,198.1a1.219,1.219,0,0,0-2.438,0v2.438a1.219,1.219,0,0,0,2.438,0Z" transform="translate(-46.746 -152.991)" fill="#fff" fill-rule="evenodd"/>
    <path id="Path_225" data-name="Path 225" d="M47.3,140.128,51.51,133.1a1.219,1.219,0,0,0-1.045-1.846H41.688a1.219,1.219,0,0,0-1.045,1.846l4.215,7.026v2.1a1.219,1.219,0,0,0,2.438,0Zm-1.219-2.707-2.235-3.726h4.471Z" transform="translate(-31.447 -101.996)" fill="#fff" fill-rule="evenodd"/>
  </g>
</svg>
