<svg xmlns="http://www.w3.org/2000/svg" xmlns:xlink="http://www.w3.org/1999/xlink" width="71.686" height="97.523" viewBox="0 0 71.686 97.523">
  <defs>
    <clipPath id="clip-path">
      <rect id="Rectangle_370" data-name="Rectangle 370" width="97.523" height="71.686" fill="#fff"/>
    </clipPath>
  </defs>
  <g id="Group_345" data-name="Group 345" transform="translate(0 97.523) rotate(-90)">
    <path id="Path_188" data-name="Path 188" d="M.607,38.7,0,37.6l2.183-1.091L2.79,37.6Zm4.245-2.184L4.245,35.42l2.183-1.091.607,1.091Zm4.367-2.3-.607-1.091,2.183-1.091.607,1.091Zm4.246-2.3-.607-1.091,2.183-1.091.607,1.091Zm4.246-2.3L17.1,28.506l2.183-1.091.607,1.091Zm4.367-2.3L21.47,26.2l2.183-1.091L24.26,26.2Zm4.245-2.3L25.715,23.9,27.9,22.8,28.5,23.9ZM30.568,22.8l-.607-1.092,2.183-1.091.607,1.091Zm4.245-2.3-.607-1.091,2.183-1.091L37,19.409Zm4.367-2.3L38.573,17.1l2.183-1.091.607,1.091Zm4.246-2.3L42.819,14.8,45,13.707l.607,1.091Zm4.246-2.3-.607-1.091L49.247,11.4l.607,1.091Zm4.245-2.3-.607-1.091L53.492,9.1l.607,1.091Zm4.367-2.3-.607-.97,2.183-1.213.607,1.091Zm4.246-2.183L59.922,5.7,62.105,4.61l.607.97Zm4.245-2.3L64.167,3.4,66.35,2.3,66.957,3.4Zm4.367-2.3-.607-1.091L70.717,0l.607,1.091Z" transform="translate(12.736 23.045)" fill="#fff"/>
    <g id="Group_359" data-name="Group 359">
      <g id="Group_358" data-name="Group 358" clip-path="url(#clip-path)">
        <path id="Path_189" data-name="Path 189" d="M90,12.615a7.489,7.489,0,0,0-6.672,4.124L57.616,8.612c0-.364.121-.728.121-1.091a7.52,7.52,0,1,0-15.041,0,7.4,7.4,0,0,0,4.731,6.914l-9.34,42.212H37.6a7.557,7.557,0,0,0-7.4,6.308H14.919a7.656,7.656,0,0,0-7.4-6.308,7.52,7.52,0,1,0,0,15.041,7.557,7.557,0,0,0,7.4-6.308H30.2a7.656,7.656,0,0,0,7.4,6.308,7.558,7.558,0,0,0,7.52-7.52,7.4,7.4,0,0,0-4.731-6.914l9.34-42.212h.485a7.489,7.489,0,0,0,6.672-4.124L82.6,19.043c0,.364-.121.728-.121,1.091A7.52,7.52,0,1,0,90,12.615ZM7.52,69.382a5.095,5.095,0,0,1,0-10.189,5.048,5.048,0,0,1,5.095,5.095A5.125,5.125,0,0,1,7.52,69.382M42.7,64.288A5.095,5.095,0,1,1,37.6,59.193,5.048,5.048,0,0,1,42.7,64.288m7.52-51.552a5.095,5.095,0,1,1,5.095-5.095,5.126,5.126,0,0,1-5.095,5.095M90,25.23A5.095,5.095,0,1,1,95.1,20.135,5.126,5.126,0,0,1,90,25.23" fill="#fff"/>
      </g>
    </g>
  </g>
</svg>
